<svg xmlns="http://www.w3.org/2000/svg" viewBox="0 0 200 40" width="200" height="40" role="img" aria-label="SuperDeco Canada decorative wall panels logo">
  <title>SuperDeco Canada</title>
  <defs>
    <linearGradient id="sd-grad" x1="0" y1="0" x2="1" y2="1">
      <stop offset="0%" stop-color="#2b4c7e"/>
      <stop offset="100%" stop-color="#1a3154"/>
    </linearGradient>
  </defs>
  <rect x="0" y="0" width="40" height="40" rx="9" fill="url(#sd-grad)"/>
  <rect x="6"  y="13" width="6" height="14" rx="2" fill="white" opacity=".8"/>
  <rect x="17" y="9"  width="6" height="22" rx="2" fill="white"/>
  <rect x="28" y="11" width="6" height="18" rx="2" fill="white" opacity=".65"/>
  <text x="52" y="25" font-family="Outfit,system-ui,-apple-system,BlinkMacSystemFont,sans-serif" font-size="19" font-weight="800" fill="#1b1a17" letter-spacing="-0.4">SuperDeco</text>
  <text x="53" y="37" font-family="Outfit,system-ui,-apple-system,BlinkMacSystemFont,sans-serif" font-size="10" font-weight="500" fill="#76736b" letter-spacing="2.2">CANADA</text>
  <path d="M5.5 0.5 L7 2.5 L9.8 2 L8.5 4.2 L10.8 4.5 L8 6.5 L9 8.8 L5.5 7.2 L2 8.8 L3 6.5 L0.2 4.5 L2.5 4.2 L1.2 2 L4 2.5 Z" fill="#76736b" transform="translate(105,30) scale(0.84)"/>
</svg>
